<svg width="25" height="24" viewBox="0 0 25 24" fill="none" xmlns="http://www.w3.org/2000/svg">
<path fill-rule="evenodd" clip-rule="evenodd" d="M18.8128 24C18.6253 24 18.3909 24 18.2034 23.9531C15.719 23.4844 13.4221 22.5938 11.4065 21.3281C9.39089 20.0625 7.70339 18.5156 6.34401 16.6406C4.98464 14.7656 3.95339 12.7031 3.39089 10.4062C2.78151 8.0625 2.64089 5.625 2.92214 3.09375C3.15651 1.17188 5.03151 0 6.67214 0C8.31276 0 9.48464 1.03125 9.81276 2.76562L10.9378 8.20312C10.9846 8.29688 10.9378 8.39062 10.8909 8.4375C10.844 8.53125 10.7971 8.57812 10.7034 8.57812L8.03151 8.625C7.37526 8.67188 7.09401 8.95312 7.09401 9.65625C7.09401 10.8281 8.12526 12.9375 9.62526 14.8594C11.1721 16.8281 12.7659 18.0938 13.6565 18.0938C13.9378 18.0938 14.2659 18.0469 14.4534 17.4375L15.344 14.9062C15.3909 14.8125 15.4378 14.7656 15.5315 14.7188C15.5784 14.7188 15.6721 14.7188 15.7659 14.7656L20.594 17.4375C21.3909 17.9062 21.9534 18.4688 22.2346 19.125C22.5159 19.7344 22.5159 20.4375 22.3753 21.0938C22.1409 21.8906 21.719 22.5938 21.0628 23.1562C20.4065 23.6719 19.5628 24 18.8128 24Z" fill="white"/>
</svg>
